<svg xmlns="http://www.w3.org/2000/svg"  viewBox="0 0 512 512" width="64px" height="64px"><path d="M 411.625 10 A 90.375 90.375 0 1 0 502 100.375 A 90.477 90.477 0 0 0 411.625 10 z M 104.13281 10.078125 A 90.375 90.375 0 0 0 10 100.375 A 90.477 90.477 0 0 0 100.375 190.75 A 90.375 90.375 0 0 0 104.13281 10.078125 z M 100.375 22 A 78.375 78.375 0 1 1 22 100.375 A 78.464 78.464 0 0 1 100.375 22 z M 408.36523 22.068359 A 78.375 78.375 0 0 1 490 100.375 A 78.464 78.464 0 0 1 411.625 178.75 A 78.375 78.375 0 0 1 408.36523 22.068359 z M 445.02539 45.025391 A 22.437 22.437 0 0 0 421.65234 67.347656 L 393.82812 83.416016 A 22.436 22.436 0 1 0 393.25195 117.81641 L 421.7793 135.69141 A 22.454 22.454 0 1 0 424.15625 123.01953 L 400.24805 108.03906 A 22.41 22.41 0 0 0 400.49219 93.421875 L 425.02539 79.253906 A 22.439 22.439 0 0 0 444.08789 89.878906 A 22.437 22.437 0 0 0 445.02539 45.025391 z M 444.08789 57.005859 A 10.437 10.437 0 1 1 433.65039 67.443359 A 10.449 10.449 0 0 1 444.08789 57.005859 z M 63.5 64.492188 A 16.017 16.017 0 0 0 47.5 80.492188 L 47.5 120.25781 A 16.017 16.017 0 0 0 63.5 136.25781 L 106.43945 136.25781 A 16.018 16.018 0 0 0 122.43945 120.25781 L 122.43945 119.30469 L 144.36328 131.33594 A 6 6 0 0 0 153.25 126.07422 L 153.25 74.675781 A 6 6 0 0 0 144.36328 69.416016 L 122.43945 81.449219 L 122.43945 80.492188 A 16.018 16.018 0 0 0 106.43945 64.492188 L 63.5 64.492188 z M 63.5 76.492188 L 106.43945 76.492188 A 4 4 0 0 1 110.43945 80.492188 L 110.43945 120.25781 A 4 4 0 0 1 106.43945 124.25781 L 63.5 124.25781 A 4 4 0 0 1 59.5 120.25781 L 59.5 80.492188 A 4 4 0 0 1 63.5 76.492188 z M 141.25 84.8125 L 141.25 115.9375 L 122.43945 105.61719 L 122.43945 95.138672 L 141.25 84.8125 z M 378.72852 89.947266 A 10.437 10.437 0 0 1 389.59961 100.375 A 10.449 10.449 0 0 1 379.16211 110.8125 A 10.437 10.437 0 0 1 378.72852 89.947266 z M 444.08789 122.87109 A 10.437 10.437 0 1 1 433.65039 133.30664 A 10.448 10.448 0 0 1 444.08789 122.87109 z M 258.875 153.06055 A 96.2 96.2 0 0 0 227.35742 159.93164 A 6 6 0 1 0 231.84375 171.06055 A 84.2 84.2 0 0 1 341.41016 280.63086 A 6 6 0 0 0 344.73438 288.4375 A 6 6 0 0 0 352.54297 285.11328 A 96.2 96.2 0 0 0 258.875 153.06055 z M 169.80469 174.84375 A 6 6 0 0 0 164.25195 178.79297 L 128.42969 277.30664 A 237.144 237.144 0 0 1 73.613281 363.37695 A 25.14 25.14 0 0 0 73.613281 398.93164 L 100.68359 426 A 25.139 25.139 0 0 0 136.23633 426 C 136.40133 425.835 136.57233 425.67672 136.73633 425.51172 L 192.7168 481.49219 A 6 6 0 0 0 201.20117 481.49219 A 44.331 44.331 0 0 0 201.20117 418.86719 L 176.25977 393.92578 A 235.979 235.979 0 0 1 222.30664 371.18359 L 320.82227 335.36133 A 6 6 0 0 0 323.01367 325.48047 L 279.5 281.96484 A 44.282 44.282 0 0 0 217.6543 220.11719 L 174.13477 176.59961 A 6 6 0 0 0 169.80469 174.84375 z M 262.01562 184.39062 A 65.1 65.1 0 0 0 238.51367 189.12305 A 6.0011372 6.0011372 0 1 0 243 200.25586 A 53.195 53.195 0 0 1 312.21875 269.47461 A 6.0001129 6.0001129 0 1 0 323.34961 273.95898 A 65.091 65.091 0 0 0 308.97852 203.5 A 65.1 65.1 0 0 0 262.01562 184.39062 z M 172.30664 191.74805 L 307.86719 327.30078 L 218.20703 359.90039 A 249.164 249.164 0 0 0 151.75195 396.48828 L 103.12695 347.86133 A 249.174 249.174 0 0 0 139.70703 281.40625 L 172.30664 191.74805 z M 244.71875 223.71289 A 32.332 32.332 0 0 1 266.48047 233.13281 A 32.286 32.286 0 0 1 270.86523 273.33203 L 226.28711 228.75586 A 32.332 32.332 0 0 1 244.71875 223.71289 z M 411.625 321.25 A 90.375 90.375 0 1 0 502 411.625 A 90.477 90.477 0 0 0 411.625 321.25 z M 408.36523 333.31836 A 78.375 78.375 0 0 1 490 411.625 A 78.464 78.464 0 0 1 411.625 490 A 78.375 78.375 0 0 1 408.36523 333.31836 z M 95.552734 357.25781 L 142.35742 404.0625 C 137.30542 408.35383 132.43857 412.83829 127.75391 417.51562 A 13.055 13.055 0 0 1 118.46094 421.36523 A 13.055 13.055 0 0 1 109.16797 417.51562 L 82.099609 390.44531 A 13.139 13.139 0 0 1 82.099609 371.86328 C 86.774943 367.18728 91.260068 362.31915 95.552734 357.25781 z M 396.14844 375.23047 A 6 6 0 0 0 390.42578 381.22266 L 390.42578 442.02148 A 6 6 0 0 0 399.58008 447.12109 L 448.73047 416.72266 A 6 6 0 0 0 448.73047 406.51562 L 448.73047 406.52148 L 399.58008 376.12109 A 6 6 0 0 0 396.14844 375.23047 z M 402.42578 391.99023 L 434.16992 411.625 L 402.42578 431.25977 L 402.42578 391.99023 z M 166.13086 400.76758 L 192.71875 427.35352 A 32.3 32.3 0 0 1 196.56836 468.37305 L 145.46875 417.27344 A 236.411 236.411 0 0 1 166.13086 400.76758 z"/></svg>