<svg xmlns="http://www.w3.org/2000/svg"  viewBox="0 0 468.423 468.423" width="117px" height="117px"><path d="M 41.539062 0.001953125 C 38.934063 0.001953125 36.764688 2.0035625 36.554688 4.6015625 L 32.398438 56.185547 C 29.203437 54.291547 25.353891 53.183594 21.212891 53.183594 C 10.184891 53.183594 1.2128906 61.034594 1.2128906 70.683594 C 1.2128906 80.332594 10.184891 88.183594 21.212891 88.183594 C 31.892891 88.183594 40.619156 80.814937 41.160156 71.585938 C 41.175156 71.482938 41.207797 71.38625 41.216797 71.28125 L 44.128906 35.134766 L 70.873047 35.134766 C 73.634047 35.134766 75.873047 32.896766 75.873047 30.134766 C 75.873047 27.372766 73.634047 25.134766 70.873047 25.134766 L 44.933594 25.134766 L 46.152344 10.003906 L 97.46875 10.003906 L 93.777344 56.146484 C 90.595344 54.277484 86.772156 53.183594 82.660156 53.183594 C 71.632156 53.183594 62.660156 61.034594 62.660156 70.683594 C 62.660156 80.332594 71.632156 88.183594 82.660156 88.183594 C 93.688156 88.183594 102.66016 80.332594 102.66016 70.683594 C 102.66016 70.651594 102.6553 70.619891 102.6543 70.587891 L 107.86719 5.4003906 C 108.15519 2.5793906 105.71881 -0.060046875 102.88281 0.001953125 L 41.539062 0.001953125 z M 313.49414 54.074219 C 266.30485 54.301787 216.66203 80.541562 219.57617 156.0918 C 220.42417 193.1748 242.80595 201.73694 252.87695 203.71094 C 253.82695 222.09394 263.13858 238.36547 277.14258 248.98047 L 277.14258 277.7207 C 254.02758 279.1867 232.47097 290.75825 218.29297 309.40625 L 61.462891 309.40625 C 48.665891 309.12725 37.761594 321.19639 39.308594 333.90039 L 47.251953 413.69141 C 47.525953 416.44041 49.984656 418.45588 52.722656 418.17188 C 55.470656 417.89887 57.475172 415.44722 57.201172 412.69922 L 49.259766 332.91016 C 48.389766 325.90416 54.403891 319.2353 61.462891 319.4043 L 245.23047 319.4043 C 252.29947 319.2343 258.31469 325.91864 257.42969 332.93164 L 244.71094 458.42188 L 5.2109375 458.42188 C 2.4499375 458.42188 0.2109375 460.65988 0.2109375 463.42188 C 0.2109375 466.18388 2.4499375 468.42187 5.2109375 468.42188 L 463.21094 468.42188 C 465.97194 468.42188 468.21094 466.18387 468.21094 463.42188 C 468.21094 460.65987 465.97294 458.42383 463.21094 458.42383 L 425.52344 458.42383 C 427.85944 454.89883 429.22461 450.67567 429.22461 446.13867 L 429.22461 358.85547 C 429.22461 315.72747 395.80105 280.35142 353.74805 277.73242 L 353.74805 248.93164 C 368.06005 238.05064 377.44052 221.24845 377.97852 202.31445 C 398.94452 198.16145 409.54495 179.66219 409.50195 147.24219 C 409.59395 144.72219 410.34033 113.82458 393.23633 95.517578 C 386.37133 88.168578 377.64042 83.872031 367.23242 82.707031 C 364.95542 67.733031 351.9507 56.181219 336.2207 55.949219 C 328.87122 54.695547 321.21602 54.03698 313.49414 54.074219 z M 21.210938 63.183594 C 26.630938 63.183594 31.210938 66.618594 31.210938 70.683594 C 31.210938 74.748594 26.631938 78.183594 21.210938 78.183594 C 15.790938 78.183594 11.210938 74.748594 11.210938 70.683594 C 11.210938 66.618594 15.790938 63.183594 21.210938 63.183594 z M 82.660156 63.183594 C 88.080156 63.183594 92.660156 66.618594 92.660156 70.683594 C 92.660156 74.748594 88.081156 78.183594 82.660156 78.183594 C 77.240156 78.183594 72.660156 74.748594 72.660156 70.683594 C 72.660156 66.618594 77.240156 63.183594 82.660156 63.183594 z M 313.61914 64.191406 C 321.253 64.134498 328.73789 64.780625 335.74023 65.945312 C 347.78523 65.945312 357.58594 75.569437 357.58594 87.398438 C 357.58594 90.110438 359.74798 92.328484 362.45898 92.396484 C 372.21898 92.644484 379.88825 95.890359 385.90625 102.31836 C 400.50525 117.91136 399.51881 146.6545 399.50781 146.9375 C 399.50481 147.0115 399.50391 147.08516 399.50391 147.16016 C 399.56991 180.04416 388.46644 189.3135 378.02344 192.0625 L 378.02344 149.49219 C 378.02344 146.73219 375.7893 144.49519 373.0293 144.49219 C 348.7993 144.72019 326.8935 132.31062 312.4375 113.39062 C 311.4145 112.21362 309.90366 111.57764 308.34766 111.68164 C 306.79266 111.78064 305.37186 112.59758 304.50586 113.89258 C 294.94886 131.20858 278.48153 144.88019 257.76953 144.49219 C 255.01653 144.50519 252.79102 146.73919 252.79102 149.49219 L 252.79102 193.5332 C 244.86802 191.4752 230.21327 183.88533 229.57227 155.86133 C 226.83852 85.320453 272.39631 64.498711 313.61914 64.191406 z M 309.18359 124.89258 C 323.92759 142.34858 345.22944 152.97984 368.02344 154.33984 L 368.02344 200.59766 C 368.02344 228.83566 344.41825 251.80859 315.40625 251.80859 C 286.49325 251.80859 262.89002 228.91497 262.79102 200.79297 L 262.79102 154.26562 C 282.10902 152.68662 299.24759 141.49658 309.18359 124.89258 z M 108.07422 136.87891 C 105.46822 136.87891 103.29984 138.88052 103.08984 141.47852 L 98.933594 193.0625 C 95.738594 191.1685 91.887094 190.06055 87.746094 190.06055 C 76.718094 190.06055 67.746094 197.91155 67.746094 207.56055 C 67.746094 217.20955 76.718094 225.06055 87.746094 225.06055 C 98.425094 225.06055 107.15131 217.6938 107.69531 208.4668 C 107.71031 208.3628 107.74295 208.2652 107.75195 208.1582 L 110.66211 172.01172 L 137.4082 172.01172 C 140.1692 172.01172 142.4082 169.77372 142.4082 167.01172 C 142.4082 164.24972 140.1692 162.01172 137.4082 162.01172 L 111.46875 162.01172 L 112.6875 146.88086 L 164.00195 146.88086 L 160.3125 193.02344 C 157.1305 191.15444 153.30631 190.0625 149.19531 190.0625 C 138.16731 190.0625 129.19531 197.9135 129.19531 207.5625 C 129.19531 217.2115 138.16731 225.0625 149.19531 225.0625 C 160.22331 225.0625 169.19531 217.2115 169.19531 207.5625 C 169.19531 207.5285 169.18945 207.49689 169.18945 207.46289 L 174.40039 142.27734 C 174.68839 139.45534 172.25397 136.81691 169.41797 136.87891 L 108.07422 136.87891 z M 87.746094 200.06055 C 93.166094 200.06055 97.746094 203.49555 97.746094 207.56055 C 97.746094 211.62555 93.167094 215.06055 87.746094 215.06055 C 82.326094 215.06055 77.746094 211.62555 77.746094 207.56055 C 77.746094 203.49555 82.326094 200.06055 87.746094 200.06055 z M 149.19531 200.06055 C 154.61531 200.06055 159.19531 203.49555 159.19531 207.56055 C 159.19531 211.62555 154.61531 215.06055 149.19531 215.06055 C 143.77531 215.06055 139.19531 211.62555 139.19531 207.56055 C 139.19531 203.49555 143.77531 200.06055 149.19531 200.06055 z M 343.74805 255.15039 L 343.74805 281.96484 C 335.26505 311.76384 295.57658 311.75334 287.14258 281.90234 L 287.14258 255.17969 C 303.92958 263.94769 326.97805 263.92839 343.74805 255.15039 z M 352.49414 287.66016 C 389.62014 289.63716 419.22461 320.81347 419.22461 358.85547 L 419.22461 389.99414 L 390.2207 389.99414 L 390.2207 370.73047 C 390.2207 367.96847 387.9817 365.73047 385.2207 365.73047 C 382.4597 365.73047 380.2207 367.96847 380.2207 370.73047 L 380.2207 394.99219 L 380.2207 423.7832 L 360.97656 425.18945 C 363.33756 422.50245 364.67383 419.04003 364.67383 415.33203 L 364.67383 401.08008 C 364.67383 392.80908 357.94483 386.08008 349.67383 386.08008 L 341.16602 386.08008 L 341.16602 382.91406 C 341.16602 380.15206 338.92702 377.91406 336.16602 377.91406 L 289.67383 377.91406 C 286.91283 377.91406 284.67383 380.15206 284.67383 382.91406 L 284.67383 422.07422 C 284.67383 433.22822 293.65627 442.30469 304.69727 442.30469 L 310.66797 442.30469 L 310.66797 448.25 C 310.66797 451.962 311.69322 455.43087 313.44922 458.42188 L 254.76172 458.42188 L 267.37891 333.94141 C 267.93591 311.19441 249.86911 308.04525 231.41211 309.40625 C 243.75111 296.48025 260.57906 288.63297 278.41406 287.66797 C 284.49606 305.82997 300.98522 314.01853 315.44922 314.01953 L 315.45117 314.01953 C 329.91917 314.01953 346.41414 305.82916 352.49414 287.66016 z M 302.87891 328.57227 C 301.2776 328.68176 299.75688 329.56023 298.89062 331.05273 L 297.37305 333.66406 C 294.11005 339.28506 295.06717 346.40928 299.70117 350.98828 C 301.09317 352.36328 301.3842 354.49673 300.4082 356.17773 L 298.89062 358.79297 C 296.90863 361.99897 299.48394 366.39573 303.21094 366.30273 C 304.93594 366.30273 306.61206 365.4105 307.53906 363.8125 L 309.05664 361.19922 C 312.31964 355.57722 311.36347 348.45395 306.73047 343.87695 C 305.33847 342.50195 305.04744 340.36655 306.02344 338.68555 L 307.53906 336.07227 C 308.92506 333.68327 308.11261 330.62428 305.72461 329.23828 C 304.82911 328.71778 303.83969 328.50657 302.87891 328.57227 z M 327.33789 328.57227 C 325.73663 328.68176 324.21586 329.56023 323.34961 331.05273 L 321.83203 333.66602 C 318.56903 339.28702 319.52616 346.41123 324.16016 350.99023 C 325.55216 352.36423 325.84219 354.49673 324.86719 356.17773 L 323.34961 358.79297 C 321.36561 361.99797 323.94292 366.39673 327.66992 366.30273 C 329.39492 366.30273 331.07105 365.4105 331.99805 363.8125 L 333.51562 361.19727 C 336.77963 355.57527 335.82245 348.45395 331.18945 343.87695 C 329.79745 342.50195 329.50642 340.36655 330.48242 338.68555 L 331.99805 336.07227 C 333.38405 333.68327 332.57159 330.62428 330.18359 329.23828 C 329.28772 328.71778 328.29865 328.50657 327.33789 328.57227 z M 153.26953 359.63281 C 137.12353 359.63281 123.98828 372.76906 123.98828 388.91406 C 123.98828 405.05906 137.12353 418.19531 153.26953 418.19531 C 169.41453 418.19531 182.55078 405.05906 182.55078 388.91406 C 182.55078 372.76906 169.41553 359.63281 153.26953 359.63281 z M 153.26953 369.63281 C 163.90053 369.63281 172.55078 378.28206 172.55078 388.91406 C 172.55078 399.54606 163.90153 408.19531 153.26953 408.19531 C 142.63753 408.19531 133.98828 399.54606 133.98828 388.91406 C 133.98828 378.28206 142.63753 369.63281 153.26953 369.63281 z M 294.67578 387.91406 L 331.16797 387.91406 L 331.16797 410.36719 L 330.8418 410.36719 C 319.7188 410.36719 310.66992 419.41606 310.66992 430.53906 L 310.66992 432.30469 L 304.69922 432.30469 C 299.17222 432.30469 294.67578 427.71617 294.67578 422.07617 L 294.67578 387.91406 z M 341.16602 396.08008 L 349.67383 396.08008 C 352.43083 396.08008 354.67383 398.32308 354.67383 401.08008 L 354.67383 415.33203 C 354.67383 415.39603 354.66411 415.45748 354.66211 415.52148 C 351.09111 412.32048 346.3798 410.36719 341.2168 410.36719 L 341.16602 410.36719 L 341.16602 396.08008 z M 390.2207 399.99219 L 419.22461 399.99219 L 419.22461 446.13867 C 419.22461 452.91267 413.72294 458.42383 406.96094 458.42383 L 330.83984 458.42383 C 325.23084 458.42383 320.66797 453.86095 320.66797 448.25195 L 320.66797 430.53906 C 320.66797 424.93106 325.23084 420.36719 330.83984 420.36719 L 341.2168 420.36719 C 346.8258 420.36719 351.38867 424.93006 351.38867 430.53906 C 351.32767 433.36106 353.94391 435.79539 356.75391 435.52539 L 385.58594 433.41602 C 388.19894 433.22602 390.2207 431.04969 390.2207 428.42969 L 390.2207 399.99219 z M 54.697266 430.80469 A 6.5 6.5 0 0 0 54.697266 443.80469 A 6.5 6.5 0 0 0 54.697266 430.80469 z"/></svg>