<svg xmlns="http://www.w3.org/2000/svg"  viewBox="0 0 80 80" width="80px" height="80px"><path d="M 31 15 L 31 23 C 30.449219 23 30 23.449219 30 24 C 30 24.011719 30 24.027344 30 24.039063 C 20.90625 27.839844 14.433594 36.632813 14.039063 47 L 6 47 L 6 65 L 24 65 L 24 47 L 16.039063 47 C 16.4375 37.359375 22.503906 29.207031 31 25.765625 L 31 33 L 49 33 L 49 25.765625 C 57.492188 29.207031 63.5625 37.359375 63.960938 47 L 56 47 L 56 65 L 74 65 L 74 47 L 65.957031 47 C 65.5625 36.628906 59.101563 27.804688 50 24.003906 C 50 24.003906 50 24 50 24 C 50 23.449219 49.550781 23 49 23 L 49 15 Z M 33 17 L 47 17 L 47 31 L 33 31 Z M 10 19 C 7.25 19 5 21.25 5 24 C 5 26.75 7.25 29 10 29 C 12.410156 29 14.4375 27.273438 14.902344 24.996094 C 14.933594 24.996094 14.964844 25 15 25 C 15.550781 25 16 24.550781 16 24 C 16 23.449219 15.550781 23 15 23 C 14.964844 23 14.933594 23.003906 14.902344 23.003906 C 14.4375 20.726563 12.410156 19 10 19 Z M 70 19 C 67.589844 19 65.5625 20.726563 65.097656 23.003906 C 65.066406 23.003906 65.035156 23 65 23 C 64.449219 23 64 23.449219 64 24 C 64 24.550781 64.449219 25 65 25 C 65.035156 25 65.066406 24.996094 65.097656 24.996094 C 65.5625 27.273438 67.589844 29 70 29 C 72.75 29 75 26.75 75 24 C 75 21.25 72.75 19 70 19 Z M 10 21 C 11.667969 21 13 22.332031 13 24 C 13 25.667969 11.667969 27 10 27 C 8.332031 27 7 25.667969 7 24 C 7 22.332031 8.332031 21 10 21 Z M 70 21 C 71.667969 21 73 22.332031 73 24 C 73 25.667969 71.667969 27 70 27 C 68.332031 27 67 25.667969 67 24 C 67 22.332031 68.332031 21 70 21 Z M 19 23 C 18.449219 23 18 23.449219 18 24 C 18 24.550781 18.449219 25 19 25 C 19.550781 25 20 24.550781 20 24 C 20 23.449219 19.550781 23 19 23 Z M 23 23 C 22.449219 23 22 23.449219 22 24 C 22 24.550781 22.449219 25 23 25 C 23.550781 25 24 24.550781 24 24 C 24 23.449219 23.550781 23 23 23 Z M 27 23 C 26.449219 23 26 23.449219 26 24 C 26 24.550781 26.449219 25 27 25 C 27.550781 25 28 24.550781 28 24 C 28 23.449219 27.550781 23 27 23 Z M 53 23 C 52.449219 23 52 23.449219 52 24 C 52 24.550781 52.449219 25 53 25 C 53.550781 25 54 24.550781 54 24 C 54 23.449219 53.550781 23 53 23 Z M 57 23 C 56.449219 23 56 23.449219 56 24 C 56 24.550781 56.449219 25 57 25 C 57.550781 25 58 24.550781 58 24 C 58 23.449219 57.550781 23 57 23 Z M 61 23 C 60.449219 23 60 23.449219 60 24 C 60 24.550781 60.449219 25 61 25 C 61.550781 25 62 24.550781 62 24 C 62 23.449219 61.550781 23 61 23 Z M 8 49 L 22 49 L 22 63 L 8 63 Z M 58 49 L 72 49 L 72 63 L 58 63 Z M 11 59 C 10.449219 59 10 59.449219 10 60 C 10 60.550781 10.449219 61 11 61 C 11.550781 61 12 60.550781 12 60 C 12 59.449219 11.550781 59 11 59 Z M 15 59 C 14.449219 59 14 59.449219 14 60 C 14 60.550781 14.449219 61 15 61 C 15.550781 61 16 60.550781 16 60 C 16 59.449219 15.550781 59 15 59 Z M 19 59 C 18.449219 59 18 59.449219 18 60 C 18 60.550781 18.449219 61 19 61 C 19.550781 61 20 60.550781 20 60 C 20 59.449219 19.550781 59 19 59 Z M 61 59 C 60.449219 59 60 59.449219 60 60 C 60 60.550781 60.449219 61 61 61 C 61.550781 61 62 60.550781 62 60 C 62 59.449219 61.550781 59 61 59 Z M 65 59 C 64.449219 59 64 59.449219 64 60 C 64 60.550781 64.449219 61 65 61 C 65.550781 61 66 60.550781 66 60 C 66 59.449219 65.550781 59 65 59 Z M 69 59 C 68.449219 59 68 59.449219 68 60 C 68 60.550781 68.449219 61 69 61 C 69.550781 61 70 60.550781 70 60 C 70 59.449219 69.550781 59 69 59 Z"/></svg>