<svg xmlns="http://www.w3.org/2000/svg"  viewBox="0 0 64 64" width="128px" height="128px"><path d="M 7 2 A 5.006 5.006 0 0 0 2 7 L 2 19 A 5.006 5.006 0 0 0 7 24 L 13 24 A 5.006 5.006 0 0 0 18 19 L 18 7 A 5.006 5.006 0 0 0 13 2 L 7 2 z M 52.835938 2.0214844 A 5 5 0 0 0 48.412109 5.0292969 A 3 3 0 0 0 45 8 L 45 8.1269531 A 4 4 0 0 0 46 16 L 58 16 A 4 4 0 0 0 58 8 L 57.900391 8 A 4.85 4.85 0 0 0 58 7 A 5 5 0 0 0 52.835938 2.0214844 z M 7 4 L 13 4 A 3 3 0 0 1 16 7 L 16 19 A 3 3 0 0 1 13 22 L 7 22 A 3 3 0 0 1 4 19 L 4 7 A 3 3 0 0 1 7 4 z M 53.007812 4.0019531 A 2.995 2.995 0 0 1 56 7 A 2.946 2.946 0 0 1 55.580078 8.5 A 1 1 0 0 0 56.445312 10 L 58 10 A 2 2 0 0 1 58 14 L 46 14 A 2 2 0 0 1 46 10 L 46.277344 10 A 1 1 0 0 0 47.140625 8.5 A 0.983 0.983 0 0 1 47 8 A 1.017 1.017 0 0 1 48.53125 7.1582031 A 1 1 0 0 0 50.054688 6.4863281 A 2.995 2.995 0 0 1 53.007812 4.0019531 z M 8 6 L 8 8 L 12 8 L 12 6 L 8 6 z M 7 10 L 7 12 L 13 12 L 13 10 L 7 10 z M 21 13 A 1 1 0 0 0 20.105469 14.447266 L 21.882812 18 L 21.105469 19.552734 A 1 1 0 0 0 21.292969 20.707031 L 23.623047 23.037109 A 2.992 2.992 0 0 0 24 29 C 24.085 29 24.166953 28.972844 24.251953 28.964844 A 8 8 0 0 0 26.34375 32.658203 A 7.862 7.862 0 0 0 28 33.892578 L 28 35.355469 L 26.583984 36 L 22.361328 36 A 3 3 0 0 0 19.400391 39.492188 L 19.414062 39.583984 A 7.011 7.011 0 0 0 17 44.869141 L 17 52 L 3 52 A 1 1 0 0 0 2 53 L 2 57 A 1 1 0 0 0 3 58 L 5 58 L 5 61 A 1 1 0 0 0 6 62 L 58 62 A 1 1 0 0 0 59 61 L 59 58 L 61 58 A 1 1 0 0 0 62 57 L 62 53 A 1 1 0 0 0 61 52 L 47 52 L 47 44.869141 A 7.011 7.011 0 0 0 44.582031 39.583984 L 44.597656 39.492188 A 3 3 0 0 0 41.638672 36 L 37.416016 36 L 36 35.355469 L 36 33.90625 A 7.969 7.969 0 0 0 39.75 28.966797 C 39.834 28.973797 39.915 29 40 29 A 2.992 2.992 0 0 0 40.376953 23.037109 L 41.707031 21.707031 A 1 1 0 0 0 42 21 L 42 18 A 5.006 5.006 0 0 0 37 13 L 21 13 z M 7 14 L 7 16 L 13 16 L 13 14 L 7 14 z M 22.617188 15 L 37 15 A 3 3 0 0 1 40 18 L 40 20.585938 L 38.585938 22 L 38.441406 22 A 1 1 0 0 1 37.492188 21.316406 L 36.949219 19.683594 A 1 1 0 0 0 35.400391 19.199219 L 33.533203 20.599609 A 7.04 7.04 0 0 1 29.332031 22 L 25.414062 22 L 23.214844 19.800781 L 23.892578 18.443359 A 1 1 0 0 0 23.900391 17.552734 L 22.617188 15 z M 9 18 L 9 20 L 11 20 L 11 18 L 9 18 z M 51 18 L 51 22 L 45 22 L 45 24 L 52 24 A 1 1 0 0 0 53 23 L 53 18 L 51 18 z M 35.490234 21.632812 L 35.589844 21.949219 A 3 3 0 0 0 38 23.964844 L 38 27 A 4.6 4.6 0 0 1 37.964844 27.613281 A 6 6 0 0 1 29.421875 32.414062 A 5.833 5.833 0 0 1 27.757812 31.244141 A 5.991 5.991 0 0 1 26.03125 27.580078 A 4.614 4.614 0 0 1 26 27 L 26 24 L 29.332031 24 A 9.052 9.052 0 0 0 34.732422 22.199219 L 35.490234 21.632812 z M 24 25 L 24 27 A 1 1 0 0 1 23 26 A 1 1 0 0 1 24 25 z M 28 25 L 28 27 L 30 27 L 30 25 L 28 25 z M 34 25 L 34 27 L 36 27 L 36 25 L 34 25 z M 40 25 A 1 1 0 0 1 41 26 A 1 1 0 0 1 40 27 L 40 25 z M 9 26 L 9 30 A 1 1 0 0 0 9.2929688 30.707031 L 16.292969 37.707031 L 17.707031 36.292969 L 11 29.585938 L 11 26 L 9 26 z M 54.869141 29 A 9 9 0 0 0 48.636719 31.636719 L 50.050781 33.050781 A 7 7 0 0 1 59.949219 33.050781 L 61.363281 31.636719 A 9 9 0 0 0 54.869141 29 z M 54.919922 33.003906 A 5.008 5.008 0 0 0 51.464844 34.464844 L 52.878906 35.878906 A 3.006 3.006 0 0 1 57.121094 35.878906 L 58.535156 34.464844 A 5.008 5.008 0 0 0 54.919922 33.003906 z M 30 34.738281 A 7.765 7.765 0 0 0 34 34.738281 L 34 36 L 30 36 L 30 34.738281 z M 54 37 L 54 39 L 56 39 L 56 37 L 54 37 z M 22.361328 38 L 41.638672 38 A 1 1 0 0 1 42.625 39.164062 L 41.152344 48 L 22.847656 48 L 21.375 39.164062 A 0.985 0.985 0 0 1 21.599609 38.353516 A 0.982 0.982 0 0 1 22.361328 38 z M 32.125 40.001953 A 3 3 0 0 0 29 43 A 3 3 0 0 0 32 46 A 3 3 0 0 0 32.125 40.001953 z M 54.292969 41.292969 L 51.585938 44 L 49 44 L 49 46 L 52 46 A 1 1 0 0 0 52.707031 45.707031 L 55.707031 42.707031 L 54.292969 41.292969 z M 32 42 A 1 1 0 1 1 31 43 A 1 1 0 0 1 32 42 z M 19.835938 42.099609 L 21 49.082031 L 21 51 A 2.966 2.966 0 0 0 21.183594 52 L 19 52 L 19 44.869141 A 5.027 5.027 0 0 1 19.835938 42.099609 z M 44.164062 42.099609 A 5.027 5.027 0 0 1 45 44.869141 L 45 52 L 42.816406 52 A 2.966 2.966 0 0 0 43 51 L 43 49.082031 L 44.164062 42.099609 z M 23 50 L 41 50 L 41 51 A 1 1 0 0 1 40 52 L 24 52 A 1 1 0 0 1 23 51 L 23 50 z M 4 54 L 60 54 L 60 56 L 4 56 L 4 54 z M 7 58 L 57 58 L 57 60 L 7 60 L 7 58 z"/></svg>