<svg xmlns="http://www.w3.org/2000/svg"  viewBox="0 0 128 128" width="128px" height="128px"><path d="M 71.130859 18.029297 A 33.72 33.72 0 0 0 38.839844 43 A 2.77 2.77 0 0 1 36.179688 45 C 21.349687 45 9.2890625 57.34 9.2890625 72.5 A 27.47 27.47 0 0 0 21.900391 95.769531 A 25.38 25.38 0 0 0 26.210938 98.050781 A 2.0019303 2.0019303 0 0 0 27.740234 94.349609 A 22.09 22.09 0 0 1 24.080078 92.419922 A 23.5 23.5 0 0 1 13.289062 72.5 C 13.289062 59.5 23.559688 49 36.179688 49 A 6.73 6.73 0 0 0 42.699219 44.089844 A 29.71 29.71 0 0 1 71.130859 22 C 87.360859 22 100.56055 35.590781 100.56055 52.300781 A 11.3 11.3 0 0 0 106.06055 61.720703 A 18.4 18.4 0 0 1 114.71094 77.5 A 18.76 18.76 0 0 1 107.75977 92.130859 A 18 18 0 0 1 100.69922 95.539062 A 2 2 0 0 0 101.15039 99.490234 A 2.3 2.3 0 0 0 101.59961 99.490234 A 22.15 22.15 0 0 0 110.25977 95.300781 A 22.74 22.74 0 0 0 118.71094 77.550781 A 22.35 22.35 0 0 0 108.16992 58.330078 A 7.3 7.3 0 0 1 104.56055 52.330078 C 104.56055 33.420078 89.560859 18.029297 71.130859 18.029297 z M 40.519531 56 A 6.34 6.34 0 0 0 34 62.179688 L 34 93.820312 A 6.34 6.34 0 0 0 40.480469 100 L 62 100 L 62 108 L 48 108 A 2 2 0 0 0 48 112 L 80 112 A 2 2 0 0 0 80 108 L 66 108 L 66 100 L 87.519531 100 A 6.34 6.34 0 0 0 94 93.820312 L 94 62.179688 A 6.34 6.34 0 0 0 87.519531 56 L 40.519531 56 z M 87.714844 59.994141 A 2.35 2.35 0 0 1 90 62.179688 L 90 93.820312 A 2.35 2.35 0 0 1 87.519531 96 L 40.519531 96 A 2.35 2.35 0 0 1 38 93.820312 L 38 62.179688 A 2.35 2.35 0 0 1 40.480469 60 L 87.480469 60 A 2.35 2.35 0 0 1 87.714844 59.994141 z"/></svg>