<svg xmlns="http://www.w3.org/2000/svg"  viewBox="0 0 512 512" width="128px" height="128px"><path d="M 431 25.998047 C 411.703 25.998047 396 41.701047 396 60.998047 C 396 80.295047 411.703 95.998047 431 95.998047 C 450.297 95.998047 466 80.295047 466 60.998047 C 466 41.701047 450.297 25.998047 431 25.998047 z M 135.99805 35.998047 C 119.45505 35.998047 105.99805 49.455047 105.99805 65.998047 C 105.99705 82.541047 119.45505 95.998047 135.99805 95.998047 C 152.54105 95.998047 165.99805 82.541047 165.99805 65.998047 C 165.99805 49.455047 152.54105 35.998047 135.99805 35.998047 z M 275.99805 36 A 9.999 9.999 0 0 0 275.99805 55.998047 A 9.999 9.999 0 0 0 275.99805 36 z M 431 45.998047 C 439.271 45.998047 446 52.727047 446 60.998047 C 446 69.270047 439.271 75.998047 431 75.998047 C 422.729 75.998047 416 69.269047 416 60.998047 C 416 52.726047 422.729 45.998047 431 45.998047 z M 55.996094 55.998047 C 53.436844 55.998047 50.878734 56.974734 48.927734 58.927734 C 45.021734 62.833734 45.021734 69.162359 48.927734 73.068359 C 52.829734 76.975359 59.162359 76.975359 63.068359 73.068359 C 66.974359 69.162359 66.974359 62.833734 63.068359 58.927734 C 61.115359 56.974734 58.555344 55.998047 55.996094 55.998047 z M 135.99805 55.998047 C 141.51105 55.998047 145.99805 60.480047 145.99805 65.998047 C 145.99805 71.511047 141.51105 75.998047 135.99805 75.998047 C 130.48005 75.998047 125.99805 71.511047 125.99805 65.998047 C 125.99805 60.480047 130.48005 55.998047 135.99805 55.998047 z M 205.99609 65.998047 C 203.43684 65.998047 200.87873 66.974234 198.92773 68.927734 C 195.02173 72.833734 195.02173 79.161359 198.92773 83.068359 C 202.82973 86.975359 209.16236 86.975359 213.06836 83.068359 C 216.97436 79.162359 216.97436 72.834734 213.06836 68.927734 C 211.11536 66.974234 208.55534 65.998047 205.99609 65.998047 z M 356 66 A 9.999 9.999 0 1 0 356 85.998047 A 9.999 9.999 0 1 0 356 66 z M 73.498047 105.99805 C 52.819047 105.99805 35.998047 122.81905 35.998047 143.49805 L 35.998047 388.5 C 35.998047 395.889 38.151422 402.77689 41.857422 408.58789 C 26.759422 414.31689 15.998047 428.92095 15.998047 446.00195 C 15.998047 468.05795 33.942047 486.00195 55.998047 486.00195 L 456 486.00195 C 478.056 486.00195 496 468.05795 496 446.00195 C 496 428.92095 485.23763 414.31389 470.14062 408.58789 C 473.84163 402.77689 476 395.889 476 388.5 L 476 143.49805 C 476 122.81905 459.179 105.99805 438.5 105.99805 L 73.498047 105.99805 z M 73.498047 125.99805 L 438.5 125.99805 C 448.148 125.99805 456 133.85005 456 143.49805 L 456 388.5 C 456 398.148 448.148 406 438.5 406 L 305.99805 406 C 300.47605 406 295.99805 410.479 295.99805 416 L 295.99805 426 L 215.99805 426 L 215.99805 416 C 215.99805 410.479 211.52005 406 205.99805 406 L 73.498047 406 C 63.850047 406 55.998047 398.148 55.998047 388.5 L 55.998047 143.49805 C 55.998047 133.85005 63.850047 125.99805 73.498047 125.99805 z M 85.998047 145.99805 C 80.476047 145.99805 75.998047 150.47605 75.998047 155.99805 L 75.998047 376 C 75.998047 381.521 80.476047 386 85.998047 386 L 426 386 C 431.522 386 436 381.521 436 376 L 436 155.99805 C 436 150.47605 431.522 145.99805 426 145.99805 L 85.998047 145.99805 z M 95.998047 165.99805 L 416 165.99805 L 416 366 L 95.998047 366 L 95.998047 165.99805 z M 285.99805 175.99805 C 280.47605 175.99805 275.99805 180.47605 275.99805 185.99805 L 275.99805 225.99805 C 275.99805 231.52005 280.47605 235.99805 285.99805 235.99805 L 396 235.99805 C 401.522 235.99805 406 231.52005 406 225.99805 L 406 185.99805 C 406 180.47605 401.522 175.99805 396 175.99805 L 285.99805 175.99805 z M 135.99609 176 C 133.43684 176.00012 130.87873 176.97669 128.92773 178.92969 L 108.92773 198.92969 C 105.02173 202.83569 105.02173 209.16331 108.92773 213.07031 L 128.92773 233.07031 C 132.82973 236.97631 139.16236 236.97631 143.06836 233.07031 C 146.97436 229.16431 146.97436 222.83669 143.06836 218.92969 L 130.13867 206 L 143.06836 193.07031 C 146.97436 189.16431 146.97436 182.83669 143.06836 178.92969 C 141.11536 176.97619 138.55534 175.99988 135.99609 176 z M 205.99805 176 C 203.4388 176 200.88069 176.97669 198.92969 178.92969 C 195.02369 182.83569 195.02369 189.16331 198.92969 193.07031 L 211.85352 206 L 198.92969 218.92969 C 195.02269 222.83469 195.02269 229.16431 198.92969 233.07031 C 202.83069 236.97631 209.16331 236.97631 213.07031 233.07031 L 233.07031 213.07031 C 236.97631 209.16431 236.97631 202.83669 233.07031 198.92969 L 213.07031 178.92969 C 211.11731 176.97669 208.5573 176 205.99805 176 z M 176.41797 176.00391 C 171.77224 175.80179 167.46762 178.88577 166.29688 183.57227 L 156.29688 223.57227 C 154.71988 229.87627 159.48991 235.99805 166.00391 235.99805 C 170.48591 235.99905 174.56317 232.96787 175.70117 228.42188 L 185.70117 188.42188 C 187.03917 183.06588 183.78287 177.63987 178.42188 176.29688 C 177.75238 176.129 177.08164 176.03278 176.41797 176.00391 z M 295.99805 196 L 386 196 L 386 216 L 295.99805 216 L 295.99805 196 z M 175.99805 246 C 170.47605 246 165.99805 250.478 165.99805 256 C 165.99805 261.521 170.47505 266 175.99805 266 L 195.99805 266 C 201.52005 266 205.99805 261.521 205.99805 256 C 205.99805 250.478 201.52005 246 195.99805 246 L 175.99805 246 z M 225.99805 246 C 220.47605 246 215.99805 250.478 215.99805 256 C 215.99805 261.523 220.47605 266 225.99805 266 L 315.99805 266 C 321.52005 266 325.99805 261.521 325.99805 256 C 325.99805 250.477 321.52005 246 315.99805 246 L 225.99805 246 z M 175.99805 276 C 170.47605 276 165.99805 280.479 165.99805 286 C 165.99805 291.521 170.47505 296 175.99805 296 L 195.99805 296 C 201.52005 296 205.99805 291.521 205.99805 286 C 205.99805 280.479 201.52005 276 195.99805 276 L 175.99805 276 z M 225.99805 276 C 220.47605 276 215.99805 280.479 215.99805 286 C 215.99805 291.521 220.47605 296 225.99805 296 L 315.99805 296 C 321.52005 296 325.99805 291.521 325.99805 286 C 325.99805 280.479 321.52005 276 315.99805 276 L 225.99805 276 z M 346 276 C 340.477 276 335.99805 280.479 335.99805 286 C 335.99805 291.521 340.477 296 346 296 L 396 296 C 401.522 296 406 291.521 406 286 C 406 280.479 401.522 276 396 276 L 346 276 z M 125.99805 306 C 120.47605 306 115.99805 310.479 115.99805 316 C 115.99805 321.521 120.47605 326 125.99805 326 L 145.99805 326 C 151.52005 326 155.99805 321.521 155.99805 316 C 155.99805 310.479 151.52005 306 145.99805 306 L 125.99805 306 z M 175.99805 306 C 170.47605 306 165.99805 310.479 165.99805 316 C 165.99805 321.521 170.47505 326 175.99805 326 L 235.99805 326 C 241.52005 326 245.99805 321.521 245.99805 316 C 245.99805 310.479 241.52005 306 235.99805 306 L 175.99805 306 z M 346 306 C 340.477 306 335.99805 310.479 335.99805 316 C 335.99805 321.521 340.477 326 346 326 L 396 326 C 401.522 326 406 321.521 406 316 C 406 310.479 401.522 306 396 306 L 346 306 z M 125.99805 336 C 120.47605 336 115.99805 340.479 115.99805 346 C 115.99805 351.521 120.47605 356 125.99805 356 L 145.99805 356 C 151.52005 356 155.99805 351.521 155.99805 346 C 155.99805 340.479 151.52005 336 145.99805 336 L 125.99805 336 z M 175.99805 336 C 170.47605 336 165.99805 340.479 165.99805 346 C 165.99805 351.521 170.47605 356 175.99805 356 L 285.99805 356 C 291.52005 356 295.99805 351.521 295.99805 346 C 295.99805 340.479 291.52005 336 285.99805 336 L 175.99805 336 z M 346 336 C 340.477 336 335.99805 340.479 335.99805 346 C 335.99805 351.521 340.477 356 346 356 L 396 356 C 401.522 356 406 351.521 406 346 C 406 340.479 401.522 336 396 336 L 346 336 z M 55.998047 426 L 195.99805 426 L 195.99805 436 C 195.99805 441.523 200.47605 446.00195 205.99805 446.00195 L 305.99805 446.00195 C 311.52005 446.00195 315.99805 441.523 315.99805 436 L 315.99805 426 L 456 426 C 467.03 426 476 434.97195 476 446.00195 C 476 457.02695 467.03 466.00195 456 466.00195 L 55.998047 466.00195 C 44.968047 466.00195 35.998047 457.02695 35.998047 446.00195 C 35.998047 434.97195 44.968047 426 55.998047 426 z"/></svg>