<svg xmlns="http://www.w3.org/2000/svg"  viewBox="0 0 50 50" width="100px" height="100px"><path d="M 25 2 C 12.308594 2 2 12.308594 2 25 C 2 37.691406 12.308594 48 25 48 C 37.691406 48 48 37.691406 48 25 C 48 12.308594 37.691406 2 25 2 Z M 25 4 C 36.609375 4 46 13.390625 46 25 C 46 36.609375 36.609375 46 25 46 C 13.390625 46 4 36.609375 4 25 C 4 13.390625 13.390625 4 25 4 Z M 13 21 C 10.800781 21 9 22.800781 9 25 C 9 27.199219 10.800781 29 13 29 C 15.199219 29 17 27.199219 17 25 C 17 22.800781 15.199219 21 13 21 Z M 25 21 C 22.800781 21 21 22.800781 21 25 C 21 27.199219 22.800781 29 25 29 C 27.199219 29 29 27.199219 29 25 C 29 22.800781 27.199219 21 25 21 Z M 37 21 C 34.800781 21 33 22.800781 33 25 C 33 27.199219 34.800781 29 37 29 C 39.199219 29 41 27.199219 41 25 C 41 22.800781 39.199219 21 37 21 Z M 13 23 C 14.117188 23 15 23.882813 15 25 C 15 26.117188 14.117188 27 13 27 C 11.882813 27 11 26.117188 11 25 C 11 23.882813 11.882813 23 13 23 Z M 25 23 C 26.117188 23 27 23.882813 27 25 C 27 26.117188 26.117188 27 25 27 C 23.882813 27 23 26.117188 23 25 C 23 23.882813 23.882813 23 25 23 Z M 37 23 C 38.117188 23 39 23.882813 39 25 C 39 26.117188 38.117188 27 37 27 C 35.882813 27 35 26.117188 35 25 C 35 23.882813 35.882813 23 37 23 Z"/></svg>